{"title":"La Peste (2018) S01 E02 - 720p x264 - SPA (ENG SUBS) [BRSHNKV]","magnet":"magnet:?xt=urn:btih:34dec5d0066071e6af88bc14a2cfe53c773644af&dn=La+Peste+%282018%29+S01+E02+-+720p+x264+-+SPA+%28ENG+SUBS%29+%5BBRSHNKV%5D&tr=udp%3A%2F%2Ftracker.leechers-paradise.org%3A6969&tr=udp%3A%2F%2Fzer0day.ch%3A1337&tr=udp%3A%2F%2Fopen.demonii.com%3A1337&tr=udp%3A%2F%2Ftracker.coppersurfer.tk%3A6969&tr=udp%3A%2F%2Fexodus.desync.com%3A6969","uploader":"BRSHNKV","categoryP":"video","categoryS":"hd___tv_shows","size":"663308256","seeders":"0","leechers":"0","description":" <a href=\"http://www.imdb.com/title/tt5868826/?ref_=nv_sr_1\" rel=\"nofollow\" target=\"_NEW\">http://www.imdb.com/title/tt5868826/?ref_=nv_sr_1</a>\r\n\r\n\r\n\r\nFormat                                   : MPEG-4\r\nFormat profile                           : Base Media / Version 2\r\nCodec ID                                 : mp42\r\nFile size                                : 633 MiB\r\nDuration                                 : 52mn 54s\r\nOverall bit rate mode                    : Variable\r\nOverall bit rate                         : 1 671 Kbps\r\nMovie name                               : La Peste S01 E02 - 720p x264 [BRSHNKV]\r\nEncoded date                             : UTC 2018-03-20 20:32:57\r\nTagged date                              : UTC 2018-03-20 20:32:57\r\nWriting application                      : HandBrake 1.0.2 2017012200\r\n\r\nVideo\r\nID                                       : 1\r\nFormat                                   : AVC\r\nFormat/Info                              : Advanced Video Codec\r\nFormat profile                           : <a href=\"/cdn-cgi/l/email-protection\" class=\"__cf_email__\" data-cfemail=\"266b474f48666a12\">[email&#xA0;protected]</a>\r\nFormat settings, CABAC                   : Yes\r\nFormat settings, ReFrames                : 8 frames\r\nCodec ID                                 : avc1\r\nCodec ID/Info                            : Advanced Video Coding\r\nDuration                                 : 52mn 54s\r\nBit rate                                 : 1 500 Kbps\r\nWidth                                    : 1 280 pixels\r\nHeight                                   : 680 pixels\r\nDisplay aspect ratio                     : 1.882\r\nFrame rate mode                          : Constant\r\nFrame rate                               : 25.000 fps\r\nColor space                              : YUV\r\nChroma subsampling                       : 4:2:0\r\nBit depth                                : 8 bits\r\nScan type                                : Progressive\r\nBits/(Pixel*Frame)                       : 0.069\r\nStream size                              : 568 MiB (90%)\r\nWriting library                          : x264 core 148 r2708 86b7198\r\nEncoded date                             : UTC 2018-03-20 20:32:57\r\nTagged date                              : UTC 2018-03-20 20:32:57\r\nColor range                              : Limited\r\nColor primaries                          : BT.709\r\nTransfer characteristics                 : BT.709\r\nMatrix coefficients                      : BT.709\r\n\r\nAudio\r\nID                                       : 2\r\nFormat                                   : AAC\r\nFormat/Info                              : Advanced Audio Codec\r\nFormat profile                           : LC\r\nCodec ID                                 : 40\r\nDuration                                 : 52mn 54s\r\nBit rate mode                            : Variable\r\nBit rate                                 : 165 Kbps\r\nChannel(s)                               : 2 channels\r\nChannel positions                        : Front: L R\r\nSampling rate                            : 44.1 KHz\r\nCompression mode                         : Lossy\r\nStream size                              : 62.5 MiB (10%)\r\nTitle                                    : Stereo / Stereo\r\nLanguage                                 : English\r\nEncoded date                             : UTC 2018-03-20 20:32:57\r\nTagged date                              : UTC 2018-03-20 20:32:57","last_updated":"2018-03-23T12:02:50.707Z","parsed":{"xt":"urn:btih:34dec5d0066071e6af88bc14a2cfe53c773644af","dn":"La Peste (2018) S01 E02 - 720p x264 - SPA (ENG SUBS) [BRSHNKV]","tr":["udp://exodus.desync.com:6969","udp://open.demonii.com:1337","udp://tracker.coppersurfer.tk:6969","udp://tracker.leechers-paradise.org:6969","udp://zer0day.ch:1337"],"infoHash":"34dec5d0066071e6af88bc14a2cfe53c773644af","infoHashBuffer":{"type":"Buffer","data":[52,222,197,208,6,96,113,230,175,136,188,20,162,207,229,60,119,54,68,175]},"name":"La Peste (2018) S01 E02 - 720p x264 - SPA (ENG SUBS) [BRSHNKV]","announce":["udp://exodus.desync.com:6969","udp://open.demonii.com:1337","udp://tracker.coppersurfer.tk:6969","udp://tracker.leechers-paradise.org:6969","udp://zer0day.ch:1337"],"urlList":[]}}